<?xml version="1.0" standalone="no"?>
<!DOCTYPE svg PUBLIC "-//W3C//DTD SVG 1.1//EN" "http://www.w3.org/Graphics/SVG/1.1/DTD/svg11.dtd" >
<svg>
<metadata>
Created by FontForge 20090622 at Mon Sep  2 20:48:08 2013
 By ffonts
Sternbach &#194;&#169; (Neale Davidson). 2013. All Rights Reserved
</metadata>
<defs>
<font id="Sternbach-Italic" horiz-adv-x="1150" >
  <font-face 
    font-family="Sternbach"
    font-weight="400"
    font-style="italic"
    font-stretch="normal"
    units-per-em="2048"
    panose-1="2 0 5 0 0 0 0 0 0 0"
    ascent="1638"
    descent="-410"
    x-height="1050"
    cap-height="1350"
    bbox="-145 -550 2564 1800"
    underline-thickness="150"
    underline-position="-142"
    unicode-range="U+0020-U+F002"
  />
<missing-glyph horiz-adv-x="1650" 
d="M0 200v1100q0 200 200 200h1100q200 0 200 -200v-1100q0 -200 -200 -200h-1100q-200 0 -200 200zM1475 201v1099q0 175 -175 175h-1100q-174 0 -175 -175v-1100q1 -175 175 -175h1101q174 0 174 176z" />
    <glyph glyph-name=".notdef" horiz-adv-x="1650" 
d="M0 200v1100q0 200 200 200h1100q200 0 200 -200v-1100q0 -200 -200 -200h-1100q-200 0 -200 200zM1475 201v1099q0 175 -175 175h-1100q-174 0 -175 -175v-1100q1 -175 175 -175h1101q174 0 174 176z" />
    <glyph glyph-name=".null" horiz-adv-x="150" 
 />
    <glyph glyph-name="nonmarkingreturn" horiz-adv-x="150" 
 />
    <glyph glyph-name="space" unicode=" " horiz-adv-x="1000" 
 />
    <glyph glyph-name="space" unicode="&#xa0;" horiz-adv-x="1000" 
 />
    <glyph glyph-name="exclam" unicode="!" horiz-adv-x="500" 
d="M80 300h350l-80 -300h-350zM134 500l228 850h350l-228 -850h-350z" />
    <glyph glyph-name="quotedbl" unicode="&#x22;" horiz-adv-x="1000" 
d="M362 1350h350l-81 -300l-153 -200h-150l-47 200zM862 1350h350l-81 -300l-153 -200h-150l-47 200z" />
    <glyph glyph-name="numbersign" unicode="#" horiz-adv-x="1300" 
d="M701 750l-40 -150h150l40 150h-150zM580 300l-40 -150h-350l40 150h-150l81 300h150l40 150h-150l80 300h150l41 150h350l-41 -150h150l41 150h350l-41 -150h150l-80 -300h-150l-40 -150h150l-81 -300h-150l-40 -150h-350l40 150h-150z" />
    <glyph glyph-name="dollar" unicode="$" horiz-adv-x="1201" 
d="M736 1250l40 150h350l-40 -150h150l-80 -300h-400q-100 0 -127 -100h350q236 0 236 -186q0 -50 -17 -114q-104 -390 -418 -442l-42 -158h-350l40 150h-401l80 300h499q151 0 192 150h-350q-236 0 -236 186q0 50 17 114q107 400 507 400z" />
    <glyph glyph-name="percent" unicode="%" horiz-adv-x="2150" 
d="M605 950q-6 -21 -6 -38q0 -62 79 -62q100 0 127 100q5 21 5 37q0 63 -79 63q-100 0 -126 -100zM1557 400q-6 -21 -6 -38q0 -62 79 -62q100 0 127 100q6 21 6 38q0 62 -79 62q-100 0 -127 -100zM1026 663q-114 -113 -329 -113h-250q-236 0 -236 186q0 50 17 114l53 200
q81 300 381 300h300q236 0 236 -186q0 -50 -17 -114l-40 -152l221 452h300l-314 -643q99 93 266 93h300q237 0 237 -187q0 -50 -17 -113l-54 -200q-80 -300 -430 -300h-250q-237 0 -237 187q0 50 17 113l37 138l-213 -438h-303z" />
    <glyph glyph-name="ampersand" unicode="&#x26;" horiz-adv-x="1200" 
d="M1238 700l-81 -300h-100l33 -250l-90 -150h-700q-237 0 -237 187q0 50 17 113l67 250q32 116 141 150q-68 22 -68 94q0 25 8 56l53 200q81 300 381 300h350l-81 -300h-150q-150 0 -190 -150l-13 -50h300l-40 -150h400zM780 300l-33 250h-250l-26 -100q-9 -34 -9 -60
q0 -90 109 -91z" />
    <glyph glyph-name="quotesingle" unicode="'" horiz-adv-x="500" 
d="M362 1350h350l-81 -300l-153 -200h-150l-47 200z" />
    <glyph glyph-name="parenleft" unicode="(" horiz-adv-x="750" 
d="M500 0h100l-80 -300h-300q-237 0 -237 187q0 50 17 113l362 1350q80 300 380 300h300l-80 -300h-100q-150 0 -190 -150l-282 -1050q-8 -32 -8 -57q0 -93 118 -93z" />
    <glyph glyph-name="parenright" unicode=")" horiz-adv-x="750" 
d="M290 150l282 1050q8 32 8 57q0 93 -118 93h-100l80 300h300q237 0 237 -187q0 -50 -17 -113l-362 -1350q-80 -300 -380 -300h-300l80 300h100q150 0 190 150z" />
    <glyph glyph-name="asterisk" unicode="*" horiz-adv-x="1200" 
d="M1114 978l100 -178l-353 -200l-119 210l-231 -210l-247 200l196 178l-192 22l194 350l242 -28l48 178h350l-48 -178l258 28l6 -350z" />
    <glyph glyph-name="plus" unicode="+" horiz-adv-x="1000" 
d="M384 500h-250l80 300h250l67 250h350l-67 -250h250l-80 -300h-250l-67 -250h-350z" />
    <glyph glyph-name="comma" unicode="," horiz-adv-x="500" 
d="M80 300h350l-80 -300l-154 -200h-250z" />
    <glyph glyph-name="hyphen" unicode="-" horiz-adv-x="950" 
d="M134 500l80 300h800l-80 -300h-800z" />
    <glyph glyph-name="hyphen" unicode="&#xad;" horiz-adv-x="950" 
d="M134 500l80 300h800l-80 -300h-800z" />
    <glyph glyph-name="period" unicode="." horiz-adv-x="500" 
d="M80 300h350l-80 -300h-350z" />
    <glyph glyph-name="slash" unicode="/" 
d="M1362 1350l-1012 -1350h-350l1012 1350h350z" />
    <glyph glyph-name="zero" unicode="0" 
d="M1062 1350q236 0 236 -186q0 -50 -17 -114l-201 -750q-80 -300 -430 -300h-350q-237 0 -237 187q0 50 17 113l201 750q81 300 381 300h400zM591 900l-120 -450q-9 -32 -9 -58q0 -92 118 -92q150 0 191 150l120 450q8 32 8 57q0 93 -118 93q-150 0 -190 -150z" />
    <glyph glyph-name="one" unicode="1" horiz-adv-x="650" 
d="M500 0h-350l281 1050h-150l81 300h500z" />
    <glyph glyph-name="two" unicode="2" horiz-adv-x="1152" 
d="M753 750q60 50 75 100h353q-42 -150 -169 -250l-481 -300h551l-80 -300h-1001l54 200q26 100 223 253zM1297 1100l-65 -50h-951l81 300h752q197 0 197 -156q0 -42 -14 -94z" />
    <glyph glyph-name="three" unicode="3" horiz-adv-x="1100" 
d="M447 550l81 300h200q100 0 127 100q5 21 5 37q0 63 -79 63h-500l81 300h650q236 0 236 -186q0 -50 -17 -114l-53 -200q-34 -125 -165 -150q92 -19 92 -99q0 -23 -8 -51l-67 -250q-80 -300 -380 -300h-650l80 300h500q100 0 127 100l14 50q5 21 5 37q0 63 -79 63h-200z
" />
    <glyph glyph-name="four" unicode="4" 
d="M672 1200q140 150 344 150h346l-81 -300h-351l-433 -500h300l81 300h350l-228 -850h-350l80 300h-650l81 300z" />
    <glyph glyph-name="five" unicode="5" horiz-adv-x="1152" 
d="M1297 1100l-65 -50h-951l81 300h752q197 0 197 -156q0 -42 -14 -94zM1 0l80 300h650l41 150q5 21 5 37q0 63 -79 63h-550l81 300h700q236 0 236 -186q0 -50 -17 -114l-67 -250q-80 -300 -380 -300h-700z" />
    <glyph glyph-name="six" unicode="6" 
d="M497 550l-26 -100q-9 -32 -9 -58q0 -92 118 -92q150 0 191 150q5 21 5 37q0 63 -79 63h-200zM578 850h350q236 0 236 -186q0 -50 -17 -114l-67 -250q-80 -300 -380 -300h-400q-237 0 -237 187q0 50 17 113l201 750q81 300 381 300h400q236 0 236 -186q0 -50 -17 -114
h-500q-150 0 -190 -150z" />
    <glyph glyph-name="seven" unicode="7" horiz-adv-x="1101" 
d="M1246 1100l-65 -50h-900l81 300h701q197 0 197 -156q0 -42 -14 -94zM729 850h399l-477 -850h-400z" />
    <glyph glyph-name="eight" unicode="8" 
d="M1062 1350q236 0 236 -186q0 -50 -17 -114l-53 -200q-34 -125 -165 -150q92 -19 92 -99q0 -23 -8 -51l-67 -250q-80 -300 -380 -300h-400q-237 0 -237 187q0 50 17 113l67 250q34 125 166 150q-93 19 -93 99q0 23 8 51l53 200q81 300 381 300h400zM697 550h-100
q-100 0 -126 -100l-14 -50q-6 -21 -6 -38q0 -62 79 -62h100q100 0 127 100l14 50q5 21 5 37q0 63 -79 63zM678 850h100q100 0 127 100q5 21 5 37q0 63 -79 63h-100q-100 0 -126 -100q-6 -21 -6 -38q0 -62 79 -62z" />
    <glyph glyph-name="nine" unicode="9" 
d="M864 800l27 100q8 32 8 57q0 93 -118 93q-150 0 -190 -150q-6 -21 -6 -38q0 -62 79 -62h200zM784 500h-350q-237 0 -237 187q0 50 17 113l67 250q81 300 381 300h400q236 0 236 -186q0 -50 -17 -114l-201 -750q-80 -300 -380 -300h-700l80 300h500q150 0 191 150z" />
    <glyph glyph-name="colon" unicode=":" horiz-adv-x="500" 
d="M80 300h350l-80 -300h-350zM214 800h350l-80 -300h-350z" />
    <glyph glyph-name="semicolon" unicode=";" horiz-adv-x="500" 
d="M214 800h350l-80 -300h-350zM80 300h350l-80 -300l-154 -200h-250z" />
    <glyph glyph-name="semicolon" unicode="&#x37e;" horiz-adv-x="500" 
d="M214 800h350l-80 -300h-350zM80 300h350l-80 -300l-154 -200h-250z" />
    <glyph glyph-name="less" unicode="&#x3c;" horiz-adv-x="1000" 
d="M214 800l831 300l19 -300l-415 -150l335 -150l-180 -300l-670 300z" />
    <glyph glyph-name="equal" unicode="=" horiz-adv-x="950" 
d="M201 750l80 300h800l-80 -300h-800zM147 550h800l-80 -300h-800z" />
    <glyph glyph-name="greater" unicode="&#x3e;" horiz-adv-x="1000" 
d="M984 500l-830 -300l-20 300l415 150l-335 150l181 300l669 -300z" />
    <glyph glyph-name="question" unicode="?" horiz-adv-x="1100" 
d="M697 550l-13 -50h-350l94 350h400l27 100q5 21 5 37q0 63 -79 63h-500l81 300h750q157 0 157 -124q0 -33 -11 -76l-107 -400q-54 -200 -254 -200h-200zM280 300h350l-80 -300h-350z" />
    <glyph glyph-name="at" unicode="@" 
d="M1062 1350q236 0 236 -186q0 -50 -17 -114l-147 -550h-500l80 300h150l67 250h-150q-150 0 -190 -150l-120 -450q-9 -32 -9 -58q0 -92 118 -92h500q-80 -300 -380 -300h-400q-237 0 -237 187q0 50 17 113l201 750q81 300 381 300h400z" />
    <glyph glyph-name="A" unicode="A" horiz-adv-x="1400" 
d="M612 1350h549q50 0 119 -25q65 -24 65 -209v-16l-95 -1100h-1250l478 850h375l-298 -550h324l89 700q-12 50 -87 50h-350z" />
    <glyph glyph-name="B" unicode="B" horiz-adv-x="1100" 
d="M1013 700q92 -19 92 -99q0 -23 -8 -51l-67 -250q-80 -300 -380 -300h-650l228 850h600l27 100q5 21 5 37q0 63 -79 63h-500l81 300h650q236 0 236 -186q0 -50 -17 -114l-53 -200q-34 -125 -165 -150zM497 550l-67 -250h250l41 150q5 21 5 37q0 63 -79 63h-150z" />
    <glyph glyph-name="C" unicode="C" 
d="M1281 1050l-13 -50h-350l13 50h-150q-150 0 -190 -150l-120 -450q-9 -32 -9 -58q0 -92 118 -92h150l14 50h350l-14 -50q-80 -300 -430 -300h-350q-237 0 -237 187q0 50 17 113l201 750q81 300 381 300h400q236 0 236 -186q0 -50 -17 -114z" />
    <glyph glyph-name="D" unicode="D" 
d="M281 1050l81 300h700q236 0 236 -186q0 -50 -17 -114l-201 -750q-80 -300 -430 -300h-650l228 850h350l-148 -550h150q150 0 191 150l120 450q8 32 8 57q0 93 -118 93h-500z" />
    <glyph glyph-name="E" unicode="E" horiz-adv-x="950" 
d="M281 1050l81 300h800l-81 -300h-800zM228 850h700l-81 -300h-350l-67 -250h450l-80 -300h-800z" />
    <glyph glyph-name="F" unicode="F" horiz-adv-x="950" 
d="M928 850l-87 -325h-350l-141 -525h-350l228 850h700zM281 1050l81 300h800l-81 -300h-800z" />
    <glyph glyph-name="G" unicode="G" 
d="M700 0h-400q-237 0 -237 187q0 50 17 113l201 750q81 300 381 300h400q236 0 236 -186q0 -50 -17 -114h-500q-150 0 -190 -150l-120 -450q-9 -32 -9 -58q0 -92 118 -92h150l67 250h-150l81 300h500l-148 -550q-80 -300 -380 -300z" />
    <glyph glyph-name="H" unicode="H" 
d="M497 550l-147 -550h-350l362 1350h350l-134 -500h300l134 500h350l-362 -1350h-350l147 550h-300z" />
    <glyph glyph-name="I" unicode="I" horiz-adv-x="500" 
d="M712 1350l-362 -1350h-350l362 1350h350z" />
    <glyph glyph-name="J" unicode="J" horiz-adv-x="700" 
d="M562 1350h350l-282 -1050q-80 -300 -430 -300h-200l80 300h50q150 0 191 150z" />
    <glyph glyph-name="K" unicode="K" 
d="M633 1060l252 190q63 50 120 75t157 25h200l-81 -300h-1000l81 300h349zM228 850h400q100 0 161.5 -50t134.5 -150l476 -650h-400l-220 300q-162 250 -233 250h-50l-147 -550h-350z" />
    <glyph glyph-name="L" unicode="L" horiz-adv-x="950" 
d="M362 1350h350l-282 -1050h450l-80 -300h-800z" />
    <glyph glyph-name="M" unicode="M" horiz-adv-x="1600" 
d="M350 0h-350l228 850h350zM281 1050l81 300h1150q236 0 236 -186q0 -50 -17 -114l-281 -1050h-350l241 900q8 32 8 57q0 93 -118 93h-950zM900 0h-350l228 850h350z" />
    <glyph glyph-name="N" unicode="N" 
d="M891 900q8 32 8 57q0 93 -118 93h-500l81 300h700q236 0 236 -186q0 -50 -17 -114l-281 -1050h-350zM350 0h-350l228 850h350z" />
    <glyph glyph-name="O" unicode="O" 
d="M1062 1350q236 0 236 -186q0 -50 -17 -114l-201 -750q-80 -300 -430 -300h-350q-237 0 -237 187q0 50 17 113l201 750q81 300 381 300h400zM591 900l-120 -450q-9 -32 -9 -58q0 -92 118 -92q150 0 191 150l120 450q8 32 8 57q0 93 -118 93q-150 0 -190 -150z" />
    <glyph glyph-name="P" unicode="P" horiz-adv-x="1100" 
d="M497 550l-147 -550h-350l228 850h600l27 100q5 21 5 37q0 63 -79 63h-500l81 300h650q236 0 236 -186q0 -50 -17 -114l-53 -200q-81 -300 -381 -300h-300z" />
    <glyph glyph-name="Q" unicode="Q" 
d="M1062 1350q236 0 236 -186q0 -50 -17 -114l-174 -650q-20 -75 -77 -100h150l-80 -300h-800q-237 0 -237 187q0 50 17 113l201 750q81 300 381 300h400zM591 900l-120 -450q-9 -32 -9 -58q0 -92 118 -92q150 0 191 150l120 450q8 32 8 57q0 93 -118 93q-150 0 -190 -150z
" />
    <glyph glyph-name="R" unicode="R" horiz-adv-x="1100" 
d="M647 550h-150l-147 -550h-350l228 850h600l27 100q5 21 5 37q0 63 -79 63h-500l81 300h750q157 0 157 -124q0 -33 -11 -76l-107 -400q-45 -169 -166 -197q83 -1 83 -83q0 -30 -11 -70l-107 -400h-350l121 450q5 21 5 37q0 63 -79 63z" />
    <glyph glyph-name="S" unicode="S" horiz-adv-x="1300" 
d="M1262 1350l-81 -300h-300q-100 0 -126 -100q-4 -15 -4 -28q0 -72 126 -72h101q316 0 316 -249q0 -67 -23 -151q-121 -450 -521 -450h-750l80 300h599q151 0 193 150q5 20 5 36q0 64 -81 64h-147q-317 0 -317 249q0 66 23 151q107 400 507 400h400z" />
    <glyph glyph-name="T" unicode="T" horiz-adv-x="1200" 
d="M281 1050l81 300h1050l-81 -300h-1050zM928 850l-228 -850h-350l228 850h350z" />
    <glyph glyph-name="U" unicode="U" 
d="M1012 1350h350l-282 -1050q-80 -300 -430 -300h-350q-237 0 -237 187q0 50 17 113l282 1050h350l-241 -900q-9 -32 -9 -58q0 -92 118 -92q150 0 191 150z" />
    <glyph glyph-name="V" unicode="V" horiz-adv-x="1450" 
d="M784 500l451 750q78 100 228 100h249l-81 -300h-100q-50 0 -128 -100l-608 -950h-294l-139 1350h350z" />
    <glyph glyph-name="W" unicode="W" horiz-adv-x="2300" 
d="M1612 1347l35 -797l440 700q78 100 228 100h249l-81 -300h-100q-50 0 -128 -100l-610 -950h-294l-56 854l-550 -854h-294l-89 1350h350l35 -800l515 796v4h352z" />
    <glyph glyph-name="X" unicode="X" horiz-adv-x="1350" 
d="M1212 1350h350l-591 -658l23 -342q36 -50 136 -50h51l-80 -300h-301q-150 0 -174 100l-12 193l-264 -293h-350l590 657l-22 343q-37 50 -138 50h-50l82 300h299q151 0 174 -100l13 -194z" />
    <glyph glyph-name="Y" unicode="Y" horiz-adv-x="1151" 
d="M772 450h-351q-237 0 -237 188q0 49 17 112l161 600h350l-121 -450q-8 -31 -8 -56q0 -94 118 -94h151l161 600h350l-282 -1050q-80 -300 -380 -300h-700l79 300h550q101 0 128 100z" />
    <glyph glyph-name="Z" unicode="Z" horiz-adv-x="1200" 
d="M54 200l777 850h-450l81 300h900l-4 -200l-778 -850h500l-80 -300h-1000z" />
    <glyph glyph-name="bracketleft" unicode="[" horiz-adv-x="750" 
d="M600 0l-80 -300h-600l522 1950h600l-80 -300h-250l-362 -1350h250z" />
    <glyph glyph-name="backslash" unicode="\" 
d="M362 1350h350l288 -1350h-350z" />
    <glyph glyph-name="bracketright" unicode="]" horiz-adv-x="750" 
d="M250 0l362 1350h-250l80 300h600l-522 -1950h-600l80 300h250z" />
    <glyph glyph-name="asciicircum" unicode="^" 
d="M1132 1800l270 -300l-363 -50l-124 100l-176 -100l-337 50l430 300h300z" />
    <glyph glyph-name="underscore" unicode="_" horiz-adv-x="1200" 
d="M0 0h1050l-80 -300h-1050z" />
    <glyph glyph-name="grave" unicode="`" horiz-adv-x="500" 
d="M482 1800h350l-93 -350h-150l-147 200z" />
    <glyph glyph-name="a" unicode="a" 
d="M474 300h256l27 100h-250q-50 0 -63 -50q-3 -12 -3 -21q0 -29 33 -29zM538 700h300q1 6 1 11q0 39 -88 39h-400l80 300h500q277 0 277 -218q0 -59 -20 -132l-188 -700h-650q-276 0 -276 218q0 58 20 132q94 350 444 350z" />
    <glyph glyph-name="b" unicode="b" 
d="M981 1050q237 0 237 -187q0 -50 -17 -113l-121 -450q-80 -300 -430 -300h-650l362 1350h350l-81 -300h350zM517 625l-93 -350h150q150 0 190 150l53 200q9 32 9 58q0 92 -118 92q-150 0 -191 -150z" />
    <glyph glyph-name="c" unicode="c" 
d="M1208 775l-14 -50h-350l14 50h-150q-150 0 -191 -150l-53 -200q-8 -32 -8 -57q0 -93 118 -93h150l13 50h350l-13 -50q-74 -275 -424 -275h-350q-237 0 -237 187q0 50 17 113l121 450q80 300 380 300h400q241 0 241 -178q0 -43 -14 -97z" />
    <glyph glyph-name="d" unicode="d" 
d="M581 1050h350l81 300h350l-362 -1350h-650q-285 0 -285 199q0 45 15 101l121 450q80 300 380 300zM708 775q-150 0 -191 -150l-53 -200q-8 -32 -8 -57q0 -93 118 -93h150l93 350q9 32 9 58q0 92 -118 92z" />
    <glyph glyph-name="e" unicode="e" 
d="M807 750h-156q-100 0 -127 -100h300l14 50q3 11 3 20q0 30 -34 30zM444 350q-3 -11 -3 -19q0 -31 39 -31h450l-80 -300h-500q-276 0 -276 218q0 58 20 132l107 400q80 300 380 300h350q268 0 268 -235q0 -71 -25 -165l-80 -300h-650z" />
    <glyph glyph-name="f" unicode="f" horiz-adv-x="950" 
d="M803 850h225l-81 -300h-225l-147 -550h-350l147 550l-224 1l80 299h225l53 200q81 300 381 300h275l-81 -300h-225z" />
    <glyph glyph-name="g" unicode="g" horiz-adv-x="1151" 
d="M1209 775l-282 -1050q-73 -275 -348 -275h-724l72 275h550q100 0 127 100l47 175h-375q-216 0 -216 171q0 46 15 104l87 325l46 175q74 275 348 275h450q218 0 218 -172q0 -45 -15 -103zM464 425q-8 -31 -8 -56q0 -94 118 -94h151l92 350q9 32 9 58q0 92 -118 92
q-150 0 -191 -150l-52 -200h-1z" />
    <glyph glyph-name="h" unicode="h" 
d="M350 0h-350l362 1350h350l-81 -300h350q237 0 237 -187q0 -50 -17 -113l-201 -750h-350l161 600q8 32 8 57q0 93 -118 93h-150z" />
    <glyph glyph-name="i" unicode="i" horiz-adv-x="500" 
d="M308 1150l54 200h350l-54 -200h-350zM281 1050h350l-281 -1050h-350z" />
    <glyph glyph-name="j" unicode="j" horiz-adv-x="700" 
d="M481 1050h350l-308 -1150q-80 -300 -430 -300h-200l80 300h50q150 0 190 150zM508 1150l54 200h350l-54 -200h-350z" />
    <glyph glyph-name="k" unicode="k" 
d="M840 623q27 -32 57 -73l303 -550h-400l-96 200q-133 250 -183 250h-50l-121 -450h-350l362 1350h350l-161 -600l127 100l127 100q63 50 119.5 75t156.5 25h200l-80 -300h-150q-50 0 -113 -50z" />
    <glyph glyph-name="l" unicode="l" horiz-adv-x="500" 
d="M712 1350l-362 -1350h-350l362 1350h350z" />
    <glyph glyph-name="m" unicode="m" horiz-adv-x="1600" 
d="M551 750l-201 -750h-350l281 1050h1150q237 0 237 -187q0 -50 -17 -113l-201 -750h-350l161 600q8 32 8 57q0 93 -118 93h-50l-201 -750h-350l201 750h-200z" />
    <glyph glyph-name="n" unicode="n" 
d="M281 1050h700q237 0 237 -187q0 -50 -17 -113l-201 -750h-350l161 600q8 32 8 57q0 93 -118 93h-150l-201 -750h-350z" />
    <glyph glyph-name="o" unicode="o" 
d="M981 1050q237 0 237 -187q0 -50 -17 -113l-121 -450q-80 -300 -430 -300h-350q-237 0 -237 187q0 50 17 113l121 450q80 300 380 300h400zM511 600l-40 -150q-9 -32 -9 -58q0 -92 118 -92q150 0 191 150l40 150q8 32 8 57q0 93 -118 93q-150 0 -190 -150z" />
    <glyph glyph-name="p" unicode="p" 
d="M700 0h-350l-107 -400h-350l388 1450h650q285 0 285 -199q0 -45 -15 -101l-121 -450q-80 -300 -380 -300zM580 300q150 0 191 150l40 150q8 32 8 57q0 93 -118 93h-150l-80 -300q-9 -32 -9 -58q0 -92 118 -92z" />
    <glyph glyph-name="q" unicode="q" 
d="M300 0q-237 0 -237 187q0 50 17 113l121 450q80 300 430 300h650l-388 -1450h-350l107 400h-350zM771 450l80 300h-150q-150 0 -190 -150l-40 -150q-9 -32 -9 -58q0 -92 118 -92q150 0 191 150z" />
    <glyph glyph-name="r" unicode="r" 
d="M281 1050h700q237 0 237 -187q0 -50 -17 -113l-40 -150h-350q8 32 8 57q0 93 -118 93h-150l-201 -750h-350z" />
    <glyph glyph-name="s" unicode="s" 
d="M457 400q-284 0 -284 198q0 46 15 102q93 350 443 350h500l-80 -300h-450q-50 0 -63 -50h300q276 -1 276 -219q0 -58 -20 -131q-94 -350 -394 -350h-700l80 300h600q50 0 64 51q3 10 3 18q0 31 -40 31h-250z" />
    <glyph glyph-name="t" unicode="t" horiz-adv-x="900" 
d="M481 1050l14 50l377 100l-41 -150h200l-87 -325h-200l-73 -275q-9 -32 -9 -58q0 -92 118 -92h50l-80 -300h-200q-285 0 -285 199q0 45 15 101l114 425l-199 1l86 324h200z" />
    <glyph glyph-name="u" unicode="u" 
d="M931 1050h350l-281 -1050h-700q-237 0 -237 187q0 50 17 113l201 750h350l-160 -600q-9 -32 -9 -58q0 -92 118 -92h150z" />
    <glyph glyph-name="v" unicode="v" horiz-adv-x="1200" 
d="M350 0l-69 1050h350l21 -575l329 575h350l-631 -1050h-350z" />
    <glyph glyph-name="w" unicode="w" horiz-adv-x="1900" 
d="M1002 475l-302 -475h-350l-69 1050h350l21 -575l329 575h350l21 -575l329 575h350l-631 -1050h-350z" />
    <glyph glyph-name="x" unicode="x" horiz-adv-x="1250" 
d="M498 507l-217 543h400l102 -253l248 253h350l-490 -525l209 -525h-400l-90 225l-210 -225h-400z" />
    <glyph glyph-name="y" unicode="y" horiz-adv-x="1152" 
d="M300 0q-237 0 -237 188q0 49 17 112l201 750h350l-160 -600q-8 -32 -8 -57q0 -93 117 -93h151l200 750h351l-347 -1300q-80 -300 -380 -300h-700l79 300h550q100 0 127 100l40 150h-351z" />
    <glyph glyph-name="z" unicode="z" 
d="M1030 300l-80 -300h-950l54 200l647 550h-450l80 300h900l-3 -200l-598 -550h400z" />
    <glyph glyph-name="braceleft" unicode="{" horiz-adv-x="850" 
d="M490 150q-8 -32 -8 -57q0 -93 118 -93h100l-80 -300h-300q-237 0 -237 187q0 50 17 113l121 450q5 21 5 37q0 63 -79 63l81 300q100 0 127 100l107 400q80 300 380 300h300l-80 -300h-100q-150 0 -190 -150l-94 -350q-34 -125 -165 -150q92 -19 92 -99q0 -23 -8 -51z" />
    <glyph glyph-name="bar" unicode="|" horiz-adv-x="500" 
d="M270 -300h-350l522 1950h350z" />
    <glyph glyph-name="braceright" unicode="}" horiz-adv-x="850" 
d="M397 550q34 125 166 150q-93 19 -93 99q0 23 8 51l94 350q8 32 8 57q0 93 -118 93h-100l80 300h300q237 0 237 -187q0 -50 -17 -113l-107 -400q-6 -21 -6 -38q0 -62 79 -62l-81 -300q-100 0 -126 -100l-121 -450q-80 -300 -380 -300h-300l80 300h100q150 0 190 150z" />
    <glyph glyph-name="asciitilde" unicode="~" 
d="M669 1750q63 50 163 50t224 -100l126 100l274 -100l-254 -200q-63 -50 -163 -50t-224 100l-126 -100l-274 100z" />
    <glyph glyph-name="exclamdown" unicode="&#xa1;" horiz-adv-x="500" 
d="M631 1050h-350l81 300h350zM578 850l-228 -850h-350l228 850h350z" />
    <glyph glyph-name="cent" unicode="&#xa2;" 
d="M1174 650l-13 -50h-350l13 50h-200q-100 0 -127 -100q-5 -21 -5 -37q0 -63 79 -63h200l13 50h350l-13 -50q-75 -278 -380 -298l-41 -152h-350l40 150h-50q-236 0 -236 186q0 50 17 114l53 200q81 300 381 300h50l40 150h350l-40 -150q236 0 236 -186q0 -50 -17 -114z" />
    <glyph glyph-name="sterling" unicode="&#xa3;" horiz-adv-x="950" 
d="M305 300l67 250l-224 1l80 299h225l53 200q81 300 381 300h275l-81 -300h-225l-53 -200h225l-81 -300h-225l-67 -250h225l-80 -300h-800l80 300h225z" />
    <glyph glyph-name="currency" unicode="&#xa4;" 
d="M551 750l-40 -150q-8 -32 -8 -57q0 -93 118 -93q150 0 190 150l40 150q8 32 8 57q0 93 -118 93q-150 0 -190 -150zM462 150l-112 -150h-350l154 205q-50 46 -50 131q0 50 17 114l120 450q46 172 165 245l-44 205h350l32 -150h156l112 150h350l-154 -205q50 -46 50 -132
q0 -50 -17 -113l-120 -450q-44 -162 -167 -237l46 -213h-350l-32 150h-156z" />
    <glyph glyph-name="yen" unicode="&#xa5;" horiz-adv-x="1250" 
d="M541 900l-179 450h400l101 -253l249 253h350l-421 -450h150l-80 -300h-225l-54 -200h225l-80 -300h-225l-27 -100h-350l27 100h-225l80 300h225l54 200h-225l80 300h150z" />
    <glyph glyph-name="brokenbar" unicode="&#xa6;" horiz-adv-x="500" 
d="M484 500l-214 -800h-350l214 800h350zM214 800l228 850h350l-228 -850h-350z" />
    <glyph glyph-name="section" unicode="&#xa7;" horiz-adv-x="1300" 
d="M626 750l-40 -150q-8 -32 -8 -57q0 -93 118 -93q150 0 190 150l40 150q8 32 8 57q0 93 -118 93q-150 0 -190 -150zM257 679q-25 50 -25 120q0 66 23 151l80 300q107 400 507 400h750l-80 -300h-650q-100 0 -127 -100l-13 -50h375q236 0 236 -186q0 -50 -17 -114l-48 -179
q25 -51 25 -121q0 -66 -22 -150l-81 -300q-120 -450 -520 -450h-750l80 300h599q151 0 191 150h-375q-236 0 -236 186q0 50 17 114z" />
    <glyph glyph-name="dieresis" unicode="&#xa8;" 
d="M1132 1800h350l-80 -300h-350zM482 1800h350l-80 -300h-350z" />
    <glyph glyph-name="copyright" unicode="&#xa9;" horiz-adv-x="1250" 
d="M1122 1200l-7 -25h-175l7 25h-75q-75 0 -96 -75l-60 -225q-4 -16 -4 -28q0 -47 59 -47h75l7 25h175l-7 -25q-40 -150 -215 -150h-175q-118 0 -118 93q0 25 8 57l101 375q40 150 190 150h200q118 0 118 -93q0 -25 -8 -57zM939 1450q-166 0 -317.5 -128t-200.5 -309
q-18 -67 -18 -127q0 -102 53 -183q82 -128 248 -128t317.5 128t199.5 310q18 67 18 128q0 101 -51 181q-83 128 -249 128zM1312 1393q79 -105 79 -239q0 -67 -20 -141q-59 -223 -262.5 -380.5t-431.5 -157.5t-346 158q-80 105 -80 239q0 67 20 141q60 222 263 379.5
t431 157.5t347 -157z" />
    <glyph glyph-name="ordfeminine" unicode="&#xaa;" horiz-adv-x="1650" 
d="M0 200v1100q0 200 200 200h1100q200 0 200 -200v-1100q0 -200 -200 -200h-1100q-200 0 -200 200zM1475 201v1099q0 175 -175 175h-1100q-174 0 -175 -175v-1100q1 -175 175 -175h1101q174 0 174 176z" />
    <glyph glyph-name="guillemotleft" unicode="&#xab;" horiz-adv-x="1650" 
d="M0 200v1100q0 200 200 200h1100q200 0 200 -200v-1100q0 -200 -200 -200h-1100q-200 0 -200 200zM1475 201v1099q0 175 -175 175h-1100q-174 0 -175 -175v-1100q1 -175 175 -175h1101q174 0 174 176z" />
    <glyph glyph-name="logicalnot" unicode="&#xac;" horiz-adv-x="1650" 
d="M0 200v1100q0 200 200 200h1100q200 0 200 -200v-1100q0 -200 -200 -200h-1100q-200 0 -200 200zM1475 201v1099q0 175 -175 175h-1100q-174 0 -175 -175v-1100q1 -175 175 -175h1101q174 0 174 176z" />
    <glyph glyph-name="registered" unicode="&#xae;" horiz-adv-x="1250" 
d="M820 950h-75l-74 -275h-175l114 425h300l13 50q3 11 3 19q0 31 -39 31h-250l40 150h375q79 0 79 -62q0 -17 -6 -38l-54 -200q-22 -84 -82 -98q41 -1 41 -41q0 -15 -6 -36l-53 -200h-175l60 225q3 11 3 19q0 31 -39 31zM939 1450q-166 0 -317.5 -128t-200.5 -309
q-18 -67 -18 -127q0 -102 53 -183q82 -128 248 -128t317.5 128t199.5 310q18 67 18 128q0 101 -51 181q-83 128 -249 128zM1312 1393q79 -105 79 -239q0 -67 -20 -141q-59 -223 -262.5 -380.5t-431.5 -157.5t-346 158q-80 105 -80 239q0 67 20 141q60 222 263 379.5
t431 157.5t347 -157z" />
    <glyph glyph-name="macron" unicode="&#xaf;" horiz-adv-x="1650" 
d="M0 200v1100q0 200 200 200h1100q200 0 200 -200v-1100q0 -200 -200 -200h-1100q-200 0 -200 200zM1475 201v1099q0 175 -175 175h-1100q-174 0 -175 -175v-1100q1 -175 175 -175h1101q174 0 174 176z" />
    <glyph glyph-name="degree" unicode="&#xb0;" horiz-adv-x="1650" 
d="M0 200v1100q0 200 200 200h1100q200 0 200 -200v-1100q0 -200 -200 -200h-1100q-200 0 -200 200zM1475 201v1099q0 175 -175 175h-1100q-174 0 -175 -175v-1100q1 -175 175 -175h1101q174 0 174 176z" />
    <glyph glyph-name="plusminus" unicode="&#xb1;" horiz-adv-x="1650" 
d="M0 200v1100q0 200 200 200h1100q200 0 200 -200v-1100q0 -200 -200 -200h-1100q-200 0 -200 200zM1475 201v1099q0 175 -175 175h-1100q-174 0 -175 -175v-1100q1 -175 175 -175h1101q174 0 174 176z" />
    <glyph glyph-name="uni00B2" unicode="&#xb2;" horiz-adv-x="1650" 
d="M0 200v1100q0 200 200 200h1100q200 0 200 -200v-1100q0 -200 -200 -200h-1100q-200 0 -200 200zM1475 201v1099q0 175 -175 175h-1100q-174 0 -175 -175v-1100q1 -175 175 -175h1101q174 0 174 176z" />
    <glyph glyph-name="uni00B3" unicode="&#xb3;" horiz-adv-x="1650" 
d="M0 200v1100q0 200 200 200h1100q200 0 200 -200v-1100q0 -200 -200 -200h-1100q-200 0 -200 200zM1475 201v1099q0 175 -175 175h-1100q-174 0 -175 -175v-1100q1 -175 175 -175h1101q174 0 174 176z" />
    <glyph glyph-name="acute" unicode="&#xb4;" horiz-adv-x="500" 
d="M792 1650l-253 -200h-150l93 350h350z" />
    <glyph glyph-name="mu" unicode="&#xb5;" 
d="M931 1050h350l-201 -750q-80 -300 -380 -300h-350l-107 -400h-350l388 1450h350l-160 -600q-9 -32 -9 -58q0 -92 118 -92q150 0 191 150z" />
    <glyph glyph-name="paragraph" unicode="&#xb6;" horiz-adv-x="1650" 
d="M0 200v1100q0 200 200 200h1100q200 0 200 -200v-1100q0 -200 -200 -200h-1100q-200 0 -200 200zM1475 201v1099q0 175 -175 175h-1100q-174 0 -175 -175v-1100q1 -175 175 -175h1101q174 0 174 176z" />
    <glyph glyph-name="periodcentered" unicode="&#xb7;" horiz-adv-x="500" 
d="M214 800h350l-80 -300h-350z" />
    <glyph glyph-name="periodcentered" unicode="&#x2219;" horiz-adv-x="500" 
d="M214 800h350l-80 -300h-350z" />
    <glyph glyph-name="cedilla" unicode="&#xb8;" horiz-adv-x="700" 
d="M227 100h350l-54 -200q-80 -300 -430 -300h-200l80 300h50q150 0 190 150z" />
    <glyph glyph-name="uni00B9" unicode="&#xb9;" horiz-adv-x="1650" 
d="M0 200v1100q0 200 200 200h1100q200 0 200 -200v-1100q0 -200 -200 -200h-1100q-200 0 -200 200zM1475 201v1099q0 175 -175 175h-1100q-174 0 -175 -175v-1100q1 -175 175 -175h1101q174 0 174 176z" />
    <glyph glyph-name="ordmasculine" unicode="&#xba;" horiz-adv-x="1650" 
d="M0 200v1100q0 200 200 200h1100q200 0 200 -200v-1100q0 -200 -200 -200h-1100q-200 0 -200 200zM1475 201v1099q0 175 -175 175h-1100q-174 0 -175 -175v-1100q1 -175 175 -175h1101q174 0 174 176z" />
    <glyph glyph-name="guillemotright" unicode="&#xbb;" horiz-adv-x="1650" 
d="M0 200v1100q0 200 200 200h1100q200 0 200 -200v-1100q0 -200 -200 -200h-1100q-200 0 -200 200zM1475 201v1099q0 175 -175 175h-1100q-174 0 -175 -175v-1100q1 -175 175 -175h1101q174 0 174 176z" />
    <glyph glyph-name="onequarter" unicode="&#xbc;" horiz-adv-x="1650" 
d="M0 200v1100q0 200 200 200h1100q200 0 200 -200v-1100q0 -200 -200 -200h-1100q-200 0 -200 200zM1475 201v1099q0 175 -175 175h-1100q-174 0 -175 -175v-1100q1 -175 175 -175h1101q174 0 174 176z" />
    <glyph glyph-name="onehalf" unicode="&#xbd;" horiz-adv-x="1650" 
d="M0 200v1100q0 200 200 200h1100q200 0 200 -200v-1100q0 -200 -200 -200h-1100q-200 0 -200 200zM1475 201v1099q0 175 -175 175h-1100q-174 0 -175 -175v-1100q1 -175 175 -175h1101q174 0 174 176z" />
    <glyph glyph-name="threequarters" unicode="&#xbe;" horiz-adv-x="1650" 
d="M0 200v1100q0 200 200 200h1100q200 0 200 -200v-1100q0 -200 -200 -200h-1100q-200 0 -200 200zM1475 201v1099q0 175 -175 175h-1100q-174 0 -175 -175v-1100q1 -175 175 -175h1101q174 0 174 176z" />
    <glyph glyph-name="questiondown" unicode="&#xbf;" horiz-adv-x="1100" 
d="M614 800l14 50h350l-94 -350h-400l-27 -100q-6 -21 -6 -38q0 -62 79 -62h500l-80 -300h-750q-157 0 -157 124q0 33 11 76l107 400q53 200 253 200h200zM1031 1050h-350l81 300h350z" />
    <glyph glyph-name="Agrave" unicode="&#xc0;" horiz-adv-x="1400" 
d="M612 1350h549q50 0 119 -25q65 -24 65 -209v-16l-95 -1100h-1250l478 850h375l-298 -550h324l89 700q-12 50 -87 50h-350zM932 1800h350l-93 -350h-150l-147 200z" />
    <glyph glyph-name="Aacute" unicode="&#xc1;" horiz-adv-x="1400" 
d="M612 1350h549q50 0 119 -25q65 -24 65 -209v-16l-95 -1100h-1250l478 850h375l-298 -550h324l89 700q-12 50 -87 50h-350zM1242 1650l-253 -200h-150l93 350h350z" />
    <glyph glyph-name="Acircumflex" unicode="&#xc2;" horiz-adv-x="1400" 
d="M612 1350h549q50 0 119 -25q65 -24 65 -209v-16l-95 -1100h-1250l478 850h375l-298 -550h324l89 700q-12 50 -87 50h-350zM1257 1800l270 -300l-363 -50l-124 100l-176 -100l-337 50l430 300h300z" />
    <glyph glyph-name="Atilde" unicode="&#xc3;" horiz-adv-x="1400" 
d="M612 1350h549q50 0 119 -25q65 -24 65 -209v-16l-95 -1100h-1250l478 850h375l-298 -550h324l89 700q-12 50 -87 50h-350zM794 1750q63 50 163 50t224 -100l126 100l274 -100l-254 -200q-63 -50 -163 -50t-224 100l-126 -100l-274 100z" />
    <glyph glyph-name="Adieresis" unicode="&#xc4;" horiz-adv-x="1400" 
d="M612 1350h549q50 0 119 -25q65 -24 65 -209v-16l-95 -1100h-1250l478 850h375l-298 -550h324l89 700q-12 50 -87 50h-350zM1257 1800h350l-80 -300h-350zM607 1800h350l-80 -300h-350z" />
    <glyph glyph-name="Aring" unicode="&#xc5;" horiz-adv-x="1400" 
d="M612 1350h549q50 0 119 -25q65 -24 65 -209v-16l-95 -1100h-1250l478 850h375l-298 -550h324l89 700q-12 50 -87 50h-350zM1235 1749q31 -35 31 -81q0 -21 -6 -43q-19 -72 -91 -123.5t-155 -51.5t-128 52q-32 36 -32 82q0 20 6 41q20 73 92 124t155 51t128 -51z" />
    <glyph glyph-name="AE" unicode="&#xc6;" horiz-adv-x="1775" 
d="M1275 300h430l-80 -300h-1625l478 850h375l-298 -550h324l89 700q-12 50 -87 50h-350l81 300h549q12 0 25 -1l1 1h800l-81 -300h-566l-17 -200h430l-81 -300h-350l-37 -138z" />
    <glyph glyph-name="Ccedilla" unicode="&#xc7;" 
d="M345 0h-45q-237 0 -237 187q0 50 17 113l201 750q81 300 381 300h400q236 0 236 -186q0 -50 -17 -114l-13 -50h-350l13 50h-150q-150 0 -190 -150l-120 -450q-9 -32 -9 -58q0 -92 118 -92h150l14 50h350l-14 -50q-74 -278 -379 -298l-28 -102q-80 -300 -430 -300h-200
l80 300h50q122 0 172 100z" />
    <glyph glyph-name="Egrave" unicode="&#xc8;" horiz-adv-x="950" 
d="M281 1050l81 300h800l-81 -300h-800zM228 850h700l-81 -300h-350l-67 -250h450l-80 -300h-800zM707 1800h350l-93 -350h-150l-147 200z" />
    <glyph glyph-name="Eacute" unicode="&#xc9;" horiz-adv-x="950" 
d="M281 1050l81 300h800l-81 -300h-800zM228 850h700l-81 -300h-350l-67 -250h450l-80 -300h-800zM1017 1650l-253 -200h-150l93 350h350z" />
    <glyph glyph-name="Ecircumflex" unicode="&#xca;" 
d="M381 1050l81 300h800l-81 -300h-800zM328 850h700l-81 -300h-350l-67 -250h450l-80 -300h-800zM1132 1800l270 -300l-363 -50l-124 100l-176 -100l-337 50l430 300h300z" />
    <glyph glyph-name="Edieresis" unicode="&#xcb;" 
d="M381 1050l81 300h800l-81 -300h-800zM328 850h700l-81 -300h-350l-67 -250h450l-80 -300h-800zM1132 1800h350l-80 -300h-350zM482 1800h350l-80 -300h-350z" />
    <glyph glyph-name="Igrave" unicode="&#xcc;" horiz-adv-x="500" 
d="M712 1350l-362 -1350h-350l362 1350h350zM482 1800h350l-93 -350h-150l-147 200z" />
    <glyph glyph-name="Iacute" unicode="&#xcd;" horiz-adv-x="500" 
d="M712 1350l-362 -1350h-350l362 1350h350zM792 1650l-253 -200h-150l93 350h350z" />
    <glyph glyph-name="Icircumflex" unicode="&#xce;" 
d="M1037 1350l-362 -1350h-350l362 1350h350zM1132 1800l270 -300l-363 -50l-124 100l-176 -100l-337 50l430 300h300z" />
    <glyph glyph-name="Idieresis" unicode="&#xcf;" 
d="M1012 1350l-362 -1350h-350l362 1350h350zM1132 1800h350l-80 -300h-350zM482 1800h350l-80 -300h-350z" />
    <glyph glyph-name="Eth" unicode="&#xd0;" horiz-adv-x="1300" 
d="M647 550l-67 -250h150q150 0 191 150l120 450q8 32 8 57q0 93 -118 93h-500l81 300h700q236 0 236 -186q0 -50 -17 -114l-201 -750q-80 -300 -430 -300h-650l147 550h-150l81 300h650l-81 -300h-150z" />
    <glyph glyph-name="Ntilde" unicode="&#xd1;" 
d="M891 900q8 32 8 57q0 93 -118 93h-500l81 300h700q236 0 236 -186q0 -50 -17 -114l-281 -1050h-350zM350 0h-350l228 850h350zM669 1750q63 50 163 50t224 -100l126 100l274 -100l-254 -200q-63 -50 -163 -50t-224 100l-126 -100l-274 100z" />
    <glyph glyph-name="Ograve" unicode="&#xd2;" 
d="M1062 1350q236 0 236 -186q0 -50 -17 -114l-201 -750q-80 -300 -430 -300h-350q-237 0 -237 187q0 50 17 113l201 750q81 300 381 300h400zM591 900l-120 -450q-9 -32 -9 -58q0 -92 118 -92q150 0 191 150l120 450q8 32 8 57q0 93 -118 93q-150 0 -190 -150zM807 1800
h350l-93 -350h-150l-147 200z" />
    <glyph glyph-name="Oacute" unicode="&#xd3;" 
d="M1062 1350q236 0 236 -186q0 -50 -17 -114l-201 -750q-80 -300 -430 -300h-350q-237 0 -237 187q0 50 17 113l201 750q81 300 381 300h400zM591 900l-120 -450q-9 -32 -9 -58q0 -92 118 -92q150 0 191 150l120 450q8 32 8 57q0 93 -118 93q-150 0 -190 -150zM1117 1650
l-253 -200h-150l93 350h350z" />
    <glyph glyph-name="Ocircumflex" unicode="&#xd4;" 
d="M1062 1350q236 0 236 -186q0 -50 -17 -114l-201 -750q-80 -300 -430 -300h-350q-237 0 -237 187q0 50 17 113l201 750q81 300 381 300h400zM591 900l-120 -450q-9 -32 -9 -58q0 -92 118 -92q150 0 191 150l120 450q8 32 8 57q0 93 -118 93q-150 0 -190 -150zM1132 1800
l270 -300l-363 -50l-124 100l-176 -100l-337 50l430 300h300z" />
    <glyph glyph-name="Otilde" unicode="&#xd5;" 
d="M1062 1350q236 0 236 -186q0 -50 -17 -114l-201 -750q-80 -300 -430 -300h-350q-237 0 -237 187q0 50 17 113l201 750q81 300 381 300h400zM591 900l-120 -450q-9 -32 -9 -58q0 -92 118 -92q150 0 191 150l120 450q8 32 8 57q0 93 -118 93q-150 0 -190 -150zM669 1750
q63 50 163 50t224 -100l126 100l274 -100l-254 -200q-63 -50 -163 -50t-224 100l-126 -100l-274 100z" />
    <glyph glyph-name="Odieresis" unicode="&#xd6;" 
d="M1062 1350q236 0 236 -186q0 -50 -17 -114l-201 -750q-80 -300 -430 -300h-350q-237 0 -237 187q0 50 17 113l201 750q81 300 381 300h400zM591 900l-120 -450q-9 -32 -9 -58q0 -92 118 -92q150 0 191 150l120 450q8 32 8 57q0 93 -118 93q-150 0 -190 -150zM1132 1800
h350l-80 -300h-350zM482 1800h350l-80 -300h-350z" />
    <glyph glyph-name="multiply" unicode="&#xd7;" horiz-adv-x="1250" 
d="M551 707l-216 543h400l101 -253l249 253h350l-491 -525l210 -525h-400l-90 225l-210 -225h-400z" />
    <glyph glyph-name="Oslash" unicode="&#xd8;" 
d="M574 300h6q150 0 191 150l46 173zM1284 1245q14 -34 14 -80q0 -51 -17 -115l-201 -750q-80 -300 -430 -300h-650l78 105q-15 35 -15 82q0 50 17 113l201 750q81 300 381 300h700zM787 1050h-6q-150 0 -190 -150l-46 -173z" />
    <glyph glyph-name="Ugrave" unicode="&#xd9;" 
d="M1012 1350h350l-282 -1050q-80 -300 -430 -300h-350q-237 0 -237 187q0 50 17 113l282 1050h350l-241 -900q-9 -32 -9 -58q0 -92 118 -92q150 0 191 150zM807 1800h350l-93 -350h-150l-147 200z" />
    <glyph glyph-name="Uacute" unicode="&#xda;" 
d="M1012 1350h350l-282 -1050q-80 -300 -430 -300h-350q-237 0 -237 187q0 50 17 113l282 1050h350l-241 -900q-9 -32 -9 -58q0 -92 118 -92q150 0 191 150zM1117 1650l-253 -200h-150l93 350h350z" />
    <glyph glyph-name="Ucircumflex" unicode="&#xdb;" 
d="M1012 1350h350l-282 -1050q-80 -300 -430 -300h-350q-237 0 -237 187q0 50 17 113l282 1050h350l-241 -900q-9 -32 -9 -58q0 -92 118 -92q150 0 191 150zM1132 1800l270 -300l-363 -50l-124 100l-176 -100l-337 50l430 300h300z" />
    <glyph glyph-name="Udieresis" unicode="&#xdc;" 
d="M1012 1350h350l-282 -1050q-80 -300 -430 -300h-350q-237 0 -237 187q0 50 17 113l282 1050h350l-241 -900q-9 -32 -9 -58q0 -92 118 -92q150 0 191 150zM1132 1800h350l-80 -300h-350zM482 1800h350l-80 -300h-350z" />
    <glyph glyph-name="Yacute" unicode="&#xdd;" horiz-adv-x="1151" 
d="M772 450h-351q-237 0 -237 188q0 49 17 112l161 600h350l-121 -450q-8 -31 -8 -56q0 -94 118 -94h151l161 600h350l-282 -1050q-80 -300 -380 -300h-700l79 300h550q101 0 128 100zM1118 1650l-253 -200h-150l93 350h350z" />
    <glyph glyph-name="Thorn" unicode="&#xde;" horiz-adv-x="1100" 
d="M631 1050h300q237 0 237 -187q0 -50 -17 -113l-54 -200q-80 -300 -380 -300h-300l-67 -250h-350l147 550h600l27 100q6 21 6 38q0 62 -79 62h-500l161 600h350z" />
    <glyph glyph-name="germandbls" unicode="&#xdf;" 
d="M281 1050q81 300 381 300h400q236 0 236 -186q0 -50 -17 -114l-53 -200q-34 -125 -165 -150q92 -19 92 -99q0 -23 -8 -51l-67 -250q-80 -300 -380 -300h-200l80 300h50q100 0 127 100l14 50q5 21 5 37q0 63 -79 63h-50l81 300h50q100 0 127 100q5 21 5 37q0 63 -79 63
h-100q-100 0 -126 -100l-255 -950h-350z" />
    <glyph glyph-name="agrave" unicode="&#xe0;" 
d="M474 300h256l27 100h-250q-50 0 -63 -50q-3 -12 -3 -21q0 -29 33 -29zM538 700h300q1 6 1 11q0 39 -88 39h-400l80 300h500q277 0 277 -218q0 -59 -20 -132l-188 -700h-650q-276 0 -276 218q0 58 20 132q94 350 444 350zM727 1500h350l-94 -350h-150l-146 200z" />
    <glyph glyph-name="aacute" unicode="&#xe1;" 
d="M474 300h256l27 100h-250q-50 0 -63 -50q-3 -12 -3 -21q0 -29 33 -29zM538 700h300q1 6 1 11q0 39 -88 39h-400l80 300h500q277 0 277 -218q0 -59 -20 -132l-188 -700h-650q-276 0 -276 218q0 58 20 132q94 350 444 350zM1037 1350l-254 -200h-150l94 350h350z" />
    <glyph glyph-name="acircumflex" unicode="&#xe2;" 
d="M474 300h256l27 100h-250q-50 0 -63 -50q-3 -12 -3 -21q0 -29 33 -29zM538 700h300q1 6 1 11q0 39 -88 39h-400l80 300h500q277 0 277 -218q0 -59 -20 -132l-188 -700h-650q-276 0 -276 218q0 58 20 132q94 350 444 350zM1052 1500l270 -300l-364 -50l-123 100l-177 -100
l-336 50l430 300h300z" />
    <glyph glyph-name="atilde" unicode="&#xe3;" 
d="M474 300h256l27 100h-250q-50 0 -63 -50q-3 -12 -3 -21q0 -29 33 -29zM538 700h300q1 6 1 11q0 39 -88 39h-400l80 300h500q277 0 277 -218q0 -59 -20 -132l-188 -700h-650q-276 0 -276 218q0 58 20 132q94 350 444 350zM589 1450q63 50 163 50t223 -100l127 100
l273 -100l-253 -200q-64 -50 -164 -50t-223 100l-127 -100l-273 100z" />
    <glyph glyph-name="adieresis" unicode="&#xe4;" 
d="M474 300h256l27 100h-250q-50 0 -63 -50q-3 -12 -3 -21q0 -29 33 -29zM538 700h300q1 6 1 11q0 39 -88 39h-400l80 300h500q277 0 277 -218q0 -59 -20 -132l-188 -700h-650q-276 0 -276 218q0 58 20 132q94 350 444 350zM1039 1450h350l-81 -300h-350zM389 1450h350
l-81 -300h-350z" />
    <glyph glyph-name="aring" unicode="&#xe5;" 
d="M474 300h256l27 100h-250q-50 0 -63 -50q-3 -12 -3 -21q0 -29 33 -29zM538 700h300q1 6 1 11q0 39 -88 39h-400l80 300h500q277 0 277 -218q0 -59 -20 -132l-188 -700h-650q-276 0 -276 218q0 58 20 132q94 350 444 350zM1030 1449q31 -35 31 -81q0 -21 -6 -43
q-19 -72 -91.5 -123.5t-155.5 -51.5t-127 52q-32 36 -32 82q0 19 6 41q20 73 92 124t155 51t128 -51z" />
    <glyph glyph-name="ae" unicode="&#xe6;" horiz-adv-x="1800" 
d="M474 300h256l27 100h-250q-50 0 -63 -50q-3 -12 -3 -21q0 -29 33 -29zM1457 750h-156q-100 0 -127 -100h300l14 50q3 11 3 20q0 30 -34 30zM350 0q-276 0 -276 218q0 58 20 132q94 350 444 350h300q1 6 1 11q0 39 -88 39h-400l80 300h500q90 0 151 -23q66 23 149 23h350
q268 0 268 -235q0 -71 -25 -165l-80 -300h-650q-3 -11 -3 -19q0 -31 39 -31h450l-80 -300h-1150z" />
    <glyph glyph-name="ccedilla" unicode="&#xe7;" 
d="M345 0h-45q-237 0 -237 187q0 50 17 113l121 450q80 300 380 300h400q241 0 241 -178q0 -43 -14 -97l-14 -50h-350l14 50h-150q-150 0 -191 -150l-53 -200q-8 -32 -8 -57q0 -93 118 -93h150l13 50h350l-13 -50q-69 -255 -373 -273l-28 -102q-80 -300 -430 -300h-200
l80 300h50q122 0 172 100z" />
    <glyph glyph-name="egrave" unicode="&#xe8;" 
d="M807 750h-156q-100 0 -127 -100h300l14 50q3 11 3 20q0 30 -34 30zM444 350q-3 -11 -3 -19q0 -31 39 -31h450l-80 -300h-500q-276 0 -276 218q0 58 20 132l107 400q80 300 380 300h350q268 0 268 -235q0 -71 -25 -165l-80 -300h-650zM727 1500h350l-94 -350h-150
l-146 200z" />
    <glyph glyph-name="eacute" unicode="&#xe9;" 
d="M807 750h-156q-100 0 -127 -100h300l14 50q3 11 3 20q0 30 -34 30zM444 350q-3 -11 -3 -19q0 -31 39 -31h450l-80 -300h-500q-276 0 -276 218q0 58 20 132l107 400q80 300 380 300h350q268 0 268 -235q0 -71 -25 -165l-80 -300h-650zM1037 1350l-254 -200h-150l94 350
h350z" />
    <glyph glyph-name="ecircumflex" unicode="&#xea;" 
d="M807 750h-156q-100 0 -127 -100h300l14 50q3 11 3 20q0 30 -34 30zM444 350q-3 -11 -3 -19q0 -31 39 -31h450l-80 -300h-500q-276 0 -276 218q0 58 20 132l107 400q80 300 380 300h350q268 0 268 -235q0 -71 -25 -165l-80 -300h-650zM1052 1500l270 -300l-364 -50
l-123 100l-177 -100l-336 50l430 300h300z" />
    <glyph glyph-name="edieresis" unicode="&#xeb;" 
d="M807 750h-156q-100 0 -127 -100h300l14 50q3 11 3 20q0 30 -34 30zM444 350q-3 -11 -3 -19q0 -31 39 -31h450l-80 -300h-500q-276 0 -276 218q0 58 20 132l107 400q80 300 380 300h350q268 0 268 -235q0 -71 -25 -165l-80 -300h-650zM1039 1450h350l-81 -300h-350z
M389 1450h350l-81 -300h-350z" />
    <glyph glyph-name="igrave" unicode="&#xec;" horiz-adv-x="500" 
d="M281 1050h350l-281 -1050h-350zM402 1500h350l-94 -350h-150l-146 200z" />
    <glyph glyph-name="iacute" unicode="&#xed;" horiz-adv-x="500" 
d="M281 1050h350l-281 -1050h-350zM712 1350l-254 -200h-150l94 350h350z" />
    <glyph glyph-name="icircumflex" unicode="&#xee;" 
d="M606 1050h350l-281 -1050h-350zM1052 1500l270 -300l-364 -50l-123 100l-177 -100l-336 50l430 300h300z" />
    <glyph glyph-name="idieresis" unicode="&#xef;" 
d="M606 1050h350l-281 -1050h-350zM1039 1450h350l-81 -300h-350zM389 1450h350l-81 -300h-350z" />
    <glyph glyph-name="eth" unicode="&#xf0;" horiz-adv-x="1152" 
d="M726 0h-450q-216 0 -216 171q0 46 15 104l48 175l18 75q74 275 348 275h375l35 125h-500l75 275h499l41 150h349l-287 -1075q-74 -275 -350 -275zM458 400q-6 -23 -6 -41q0 -84 123 -84q150 0 190 150l26 100h-151q-149 0 -191 -150z" />
    <glyph glyph-name="ntilde" unicode="&#xf1;" 
d="M281 1050h700q237 0 237 -187q0 -50 -17 -113l-201 -750h-350l161 600q8 32 8 57q0 93 -118 93h-150l-201 -750h-350zM589 1450q63 50 163 50t223 -100l127 100l273 -100l-253 -200q-64 -50 -164 -50t-223 100l-127 -100l-273 100z" />
    <glyph glyph-name="ograve" unicode="&#xf2;" 
d="M981 1050q237 0 237 -187q0 -50 -17 -113l-121 -450q-80 -300 -430 -300h-350q-237 0 -237 187q0 50 17 113l121 450q80 300 380 300h400zM511 600l-40 -150q-9 -32 -9 -58q0 -92 118 -92q150 0 191 150l40 150q8 32 8 57q0 93 -118 93q-150 0 -190 -150zM727 1500h350
l-94 -350h-150l-146 200z" />
    <glyph glyph-name="oacute" unicode="&#xf3;" 
d="M981 1050q237 0 237 -187q0 -50 -17 -113l-121 -450q-80 -300 -430 -300h-350q-237 0 -237 187q0 50 17 113l121 450q80 300 380 300h400zM511 600l-40 -150q-9 -32 -9 -58q0 -92 118 -92q150 0 191 150l40 150q8 32 8 57q0 93 -118 93q-150 0 -190 -150zM1037 1350
l-254 -200h-150l94 350h350z" />
    <glyph glyph-name="ocircumflex" unicode="&#xf4;" 
d="M981 1050q237 0 237 -187q0 -50 -17 -113l-121 -450q-80 -300 -430 -300h-350q-237 0 -237 187q0 50 17 113l121 450q80 300 380 300h400zM511 600l-40 -150q-9 -32 -9 -58q0 -92 118 -92q150 0 191 150l40 150q8 32 8 57q0 93 -118 93q-150 0 -190 -150zM1052 1500
l270 -300l-364 -50l-123 100l-177 -100l-336 50l430 300h300z" />
    <glyph glyph-name="otilde" unicode="&#xf5;" 
d="M981 1050q237 0 237 -187q0 -50 -17 -113l-121 -450q-80 -300 -430 -300h-350q-237 0 -237 187q0 50 17 113l121 450q80 300 380 300h400zM511 600l-40 -150q-9 -32 -9 -58q0 -92 118 -92q150 0 191 150l40 150q8 32 8 57q0 93 -118 93q-150 0 -190 -150zM589 1450
q63 50 163 50t223 -100l127 100l273 -100l-253 -200q-64 -50 -164 -50t-223 100l-127 -100l-273 100z" />
    <glyph glyph-name="odieresis" unicode="&#xf6;" 
d="M981 1050q237 0 237 -187q0 -50 -17 -113l-121 -450q-80 -300 -430 -300h-350q-237 0 -237 187q0 50 17 113l121 450q80 300 380 300h400zM511 600l-40 -150q-9 -32 -9 -58q0 -92 118 -92q150 0 191 150l40 150q8 32 8 57q0 93 -118 93q-150 0 -190 -150zM1039 1450h350
l-81 -300h-350zM389 1450h350l-81 -300h-350z" />
    <glyph glyph-name="divide" unicode="&#xf7;" horiz-adv-x="950" 
d="M134 500l80 300h800l-80 -300h-800zM332 400h350l-80 -300h-350zM547 1200h350l-81 -300h-350z" />
    <glyph glyph-name="oslash" unicode="&#xf8;" 
d="M618 303q118 17 153 147l9 35zM1198 956q20 -39 20 -93q0 -50 -17 -113l-121 -450q-80 -300 -430 -300h-650l83 94q-20 39 -20 93q0 50 17 113l121 450q80 300 380 300h700zM663 747q-117 -17 -152 -147l-10 -35z" />
    <glyph glyph-name="ugrave" unicode="&#xf9;" 
d="M931 1050h350l-281 -1050h-700q-237 0 -237 187q0 50 17 113l201 750h350l-160 -600q-9 -32 -9 -58q0 -92 118 -92h150zM727 1500h350l-94 -350h-150l-146 200z" />
    <glyph glyph-name="uacute" unicode="&#xfa;" 
d="M931 1050h350l-281 -1050h-700q-237 0 -237 187q0 50 17 113l201 750h350l-160 -600q-9 -32 -9 -58q0 -92 118 -92h150zM1037 1350l-254 -200h-150l94 350h350z" />
    <glyph glyph-name="ucircumflex" unicode="&#xfb;" 
d="M931 1050h350l-281 -1050h-700q-237 0 -237 187q0 50 17 113l201 750h350l-160 -600q-9 -32 -9 -58q0 -92 118 -92h150zM1052 1500l270 -300l-364 -50l-123 100l-177 -100l-336 50l430 300h300z" />
    <glyph glyph-name="udieresis" unicode="&#xfc;" 
d="M931 1050h350l-281 -1050h-700q-237 0 -237 187q0 50 17 113l201 750h350l-160 -600q-9 -32 -9 -58q0 -92 118 -92h150zM1039 1450h350l-81 -300h-350zM389 1450h350l-81 -300h-350z" />
    <glyph glyph-name="yacute" unicode="&#xfd;" horiz-adv-x="1152" 
d="M300 0q-237 0 -237 188q0 49 17 112l201 750h350l-160 -600q-8 -32 -8 -57q0 -93 117 -93h151l200 750h351l-347 -1300q-80 -300 -380 -300h-700l79 300h550q100 0 127 100l40 150h-351zM1038 1350l-254 -200h-150l94 350h350z" />
    <glyph glyph-name="thorn" unicode="&#xfe;" 
d="M580 300q150 0 191 150l40 150q8 32 8 57q0 93 -118 93h-150l-80 -300q-9 -32 -9 -58q0 -92 118 -92zM631 1050h300q285 0 285 -199q0 -45 -15 -101l-121 -450q-80 -300 -380 -300h-350l-107 -400h-350l469 1750h350z" />
    <glyph glyph-name="ydieresis" unicode="&#xff;" horiz-adv-x="1152" 
d="M300 0q-237 0 -237 188q0 49 17 112l201 750h350l-160 -600q-8 -32 -8 -57q0 -93 117 -93h151l200 750h351l-347 -1300q-80 -300 -380 -300h-700l79 300h550q100 0 127 100l40 150h-351zM1040 1450h350l-81 -300h-350zM390 1450h350l-81 -300h-350z" />
    <glyph glyph-name="dotlessi" unicode="&#x131;" horiz-adv-x="500" 
d="M281 1050h350l-281 -1050h-350z" />
    <glyph glyph-name="circumflex" unicode="&#x2c6;" 
d="M1132 1800l270 -300l-363 -50l-124 100l-176 -100l-337 50l430 300h300z" />
    <glyph glyph-name="caron" unicode="&#x2c7;" 
d="M739 1450l-270 300l363 50l124 -100l176 100l337 -50l-430 -300h-300z" />
    <glyph glyph-name="uni02C9" unicode="&#x2c9;" horiz-adv-x="666" 
d="M320 1195l34 125h516l-34 -125h-516z" />
    <glyph glyph-name="breve" unicode="&#x2d8;" horiz-adv-x="734" 
d="M361 1349h51v-6q0 -68 47 -101q49 -34 158 -34t175 33.5t102 107.5h51q-55 -133 -147.5 -201.5t-215.5 -68.5q-122 0 -178 69q-46 55 -46 151q0 24 3 50z" />
    <glyph glyph-name="dotaccent" unicode="&#x2d9;" horiz-adv-x="500" 
d="M482 1800h350l-80 -300h-350z" />
    <glyph glyph-name="ring" unicode="&#x2da;" horiz-adv-x="550" 
d="M810 1749q31 -35 31 -81q0 -21 -6 -43q-19 -72 -91 -123.5t-155 -51.5t-128 52q-32 36 -32 82q0 20 6 41q20 73 92 124t155 51t128 -51z" />
    <glyph glyph-name="ogonek" unicode="&#x2db;" horiz-adv-x="700" 
d="M363 50q-8 -32 -8 -57q0 -93 118 -93h50l-80 -300h-200q-285 0 -285 199q0 45 15 101l54 200h350z" />
    <glyph glyph-name="tilde" unicode="&#x2dc;" 
d="M669 1750q63 50 163 50t224 -100l126 100l274 -100l-254 -200q-63 -50 -163 -50t-224 100l-126 -100l-274 100z" />
    <glyph glyph-name="hungarumlaut" unicode="&#x2dd;" horiz-adv-x="739" 
d="M289 1079l217 273q36 44 62.5 63t51.5 19q28 0 43 -20q10 -13 10 -29q0 -9 -3 -18q-4 -16 -19.5 -35t-41.5 -41l-262 -212h-58zM574 1079l217 273q36 44 62.5 63t51.5 19q28 0 43 -20q10 -13 10 -29q0 -9 -3 -18q-4 -16 -19.5 -35t-41.5 -41l-262 -212h-58z" />
    <glyph glyph-name="endash" unicode="&#x2013;" horiz-adv-x="950" 
d="M134 500l80 300h800l-80 -300h-800z" />
    <glyph glyph-name="emdash" unicode="&#x2014;" horiz-adv-x="1100" 
d="M134 500l80 300h950l-80 -300h-950z" />
    <glyph glyph-name="quoteleft" unicode="&#x2018;" horiz-adv-x="500" 
d="M362 1350h350l-81 -300l-153 -200h-150l-47 200z" />
    <glyph glyph-name="quoteright" unicode="&#x2019;" horiz-adv-x="500" 
d="M362 1350h350l-81 -300l-153 -200h-150l-47 200z" />
    <glyph glyph-name="quotesinglbase" unicode="&#x201a;" horiz-adv-x="500" 
d="M80 300h350l-80 -300l-154 -200h-150l-46 200z" />
    <glyph glyph-name="quotedblleft" unicode="&#x201c;" horiz-adv-x="1000" 
d="M362 1350h350l-81 -300l-153 -200h-150l-47 200zM862 1350h350l-81 -300l-153 -200h-150l-47 200z" />
    <glyph glyph-name="quotedblright" unicode="&#x201d;" horiz-adv-x="1000" 
d="M362 1350h350l-81 -300l-153 -200h-150l-47 200zM862 1350h350l-81 -300l-153 -200h-150l-47 200z" />
    <glyph glyph-name="quotedblbase" unicode="&#x201e;" horiz-adv-x="1000" 
d="M80 300h350l-80 -300l-154 -200h-150l-46 200zM580 300h350l-80 -300l-154 -200h-150l-46 200z" />
    <glyph glyph-name="dagger" unicode="&#x2020;" horiz-adv-x="1023" 
d="M689 1022q8 42 8 80q0 52 -14 98q-24 82 -24 116q0 8 1 13q13 49 57 78.5t104 29.5q57 0 87 -27q22 -21 22 -50q0 -10 -3 -22q-9 -32 -92 -137q-69 -85 -103 -179q98 8 191 54q117 57 145 57q49 0 69 -36q11 -20 11 -47q0 -22 -7 -49q-15 -57 -52.5 -94.5t-82.5 -37.5
q-32 0 -121 55q-73 46 -164 57q-13 -60 -13 -112q0 -99 49 -165q-230 -460 -373 -974h-38q131 514 147 974q129 101 185 277q-99 -10 -193 -55q-116 -57 -144 -57q-49 0 -69 36q-11 20 -11 47q0 22 7 49q15 57 53 94.5t82 37.5q32 0 122 -56q72 -46 164 -55z" />
    <glyph glyph-name="daggerdbl" unicode="&#x2021;" horiz-adv-x="1023" 
d="M508 186q97 11 194 57q119 55 151 55q45 0 63 -37q9 -20 9 -45q0 -23 -8 -50q-16 -60 -55.5 -96t-88.5 -36q-28 0 -114 57q-68 46 -162 54q-7 -39 -7 -76q0 -53 14 -103q20 -79 20 -116q0 -13 -2 -21q-12 -44 -56.5 -71.5t-101.5 -27.5q-60 0 -88 30q-20 19 -20 48
q0 14 5 30q7 28 91 129q68 81 102 178q-97 -9 -194 -55q-120 -56 -152 -56q-44 0 -61 38q-10 20 -10 46q0 22 7 48q17 60 56 96t88 36q28 0 114 -57q70 -45 163 -55q24 108 24 203q0 105 -29 195q148 171 218 397q-99 -10 -193 -55q-116 -57 -144 -57q-49 0 -69 36
q-11 20 -11 47q0 22 7 49q15 57 53 94.5t82 37.5q32 0 122 -56q72 -46 164 -55q8 42 8 80q0 52 -14 98q-24 82 -24 116q0 8 1 13q13 49 57 78.5t104 29.5q57 0 87 -27q22 -21 22 -50q0 -10 -3 -22q-9 -32 -92 -137q-69 -85 -103 -179q98 8 191 54q117 57 145 57q49 0 69 -36
q11 -20 11 -47q0 -22 -7 -49q-15 -57 -52.5 -94.5t-82.5 -37.5q-32 0 -121 55q-73 46 -164 57q-26 -110 -26 -207q0 -102 29 -190q-148 -172 -216 -398z" />
    <glyph glyph-name="bullet" unicode="&#x2022;" horiz-adv-x="742" 
d="M192 718q33 123 143 209t233 86q122 0 186 -86q41 -57 41 -130q0 -37 -11 -79q-32 -122 -143 -209.5t-233 -87.5q-123 0 -186 87q-41 57 -41 130q0 38 11 80z" />
    <glyph glyph-name="ellipsis" unicode="&#x2026;" horiz-adv-x="1400" 
d="M980 300h350l-80 -300h-350zM530 300h350l-80 -300h-350zM80 300h350l-80 -300h-350z" />
    <glyph glyph-name="guilsinglleft" unicode="&#x2039;" horiz-adv-x="1000" 
d="M214 800l831 300l19 -300l-415 -150l335 -150l-180 -300l-670 300z" />
    <glyph glyph-name="guilsinglright" unicode="&#x203a;" horiz-adv-x="1000" 
d="M984 500l-830 -300l-20 300l415 150l-335 150l181 300l669 -300z" />
    <glyph glyph-name="fraction" unicode="&#x2044;" 
d="M1362 1350l-1012 -1350h-350l1012 1350h350z" />
    <glyph glyph-name="fraction" unicode="&#x2215;" 
d="M1362 1350l-1012 -1350h-350l1012 1350h350z" />
    <glyph glyph-name="franc" unicode="&#x20a3;" horiz-adv-x="1100" 
d="M431 1050l81 300h800l-81 -300h-800zM257 400l121 450h700l-87 -325h-350l-34 -125h300l-80 -300h-300l-27 -100h-350l27 100h-150l80 300h150z" />
    <glyph glyph-name="lira" unicode="&#x20a4;" horiz-adv-x="950" 
d="M305 300l67 250l-224 1l80 299h225l53 200q81 300 381 300h275l-81 -300h-225l-53 -200h225l-81 -300h-225l-67 -250h225l-80 -300h-800l80 300h225z" />
    <glyph glyph-name="peseta" unicode="&#x20a7;" horiz-adv-x="1250" 
d="M257 400l121 450h600l27 100q5 21 5 37q0 63 -79 63h-500l81 300h650q236 0 236 -186q0 -50 -17 -114l-53 -200q-81 -300 -381 -300h-300l-40 -150h300l-80 -300h-300l-27 -100h-350l27 100h-150l80 300h150z" />
    <glyph glyph-name="Euro" unicode="&#x20ac;" horiz-adv-x="1300" 
d="M378 850l53 200q81 300 381 300h400q236 0 236 -186q0 -50 -17 -114l-13 -50h-350l13 50h-150q-150 0 -190 -150l-13 -50h300l-81 -300h-300l-26 -100q-9 -32 -9 -58q0 -92 118 -92h150l14 50h350l-14 -50q-80 -300 -430 -300h-350q-237 0 -237 187q0 50 17 113l67 250
h-150l81 300h150z" />
    <glyph glyph-name="afii61352" unicode="&#x2116;" horiz-adv-x="1275" 
d="M626 1125q5 16 5 29q0 46 -59 46h-250l40 150h350q118 0 118 -93q0 -25 -8 -57l-141 -525h-175zM356 675h-175l114 425h175zM1337 1350q118 0 118 -93q0 -25 -8 -57l-101 -375q-40 -150 -215 -150h-175q-118 0 -118 93q0 25 8 57l101 375q40 150 190 150h200zM1101 1125
l-60 -225q-4 -16 -4 -28q0 -47 59 -47q75 0 95 75l60 225q5 16 5 29q0 46 -59 46q-75 0 -96 -75z" />
    <glyph glyph-name="trademark" unicode="&#x2122;" horiz-adv-x="1525" 
d="M322 1200l40 150h525l-40 -150h-525zM645 1100l-114 -425h-175l114 425h175zM1006 675h-175l114 425h175zM972 1200l40 150h575q118 0 118 -93q0 -25 -8 -57l-141 -525h-175l120 450q5 16 5 29q0 46 -59 46h-475zM1281 675h-175l114 425h175z" />
    <glyph glyph-name="partialdiff" unicode="&#x2202;" horiz-adv-x="1650" 
d="M0 200v1100q0 200 200 200h1100q200 0 200 -200v-1100q0 -200 -200 -200h-1100q-200 0 -200 200zM1475 201v1099q0 175 -175 175h-1100q-174 0 -175 -175v-1100q1 -175 175 -175h1101q174 0 174 176z" />
    <glyph glyph-name="Delta" unicode="&#x2206;" horiz-adv-x="1650" 
d="M0 200v1100q0 200 200 200h1100q200 0 200 -200v-1100q0 -200 -200 -200h-1100q-200 0 -200 200zM1475 201v1099q0 175 -175 175h-1100q-174 0 -175 -175v-1100q1 -175 175 -175h1101q174 0 174 176z" />
    <glyph glyph-name="product" unicode="&#x220f;" horiz-adv-x="1650" 
d="M0 200v1100q0 200 200 200h1100q200 0 200 -200v-1100q0 -200 -200 -200h-1100q-200 0 -200 200zM1475 201v1099q0 175 -175 175h-1100q-174 0 -175 -175v-1100q1 -175 175 -175h1101q174 0 174 176z" />
    <glyph glyph-name="summation" unicode="&#x2211;" horiz-adv-x="1650" 
d="M0 200v1100q0 200 200 200h1100q200 0 200 -200v-1100q0 -200 -200 -200h-1100q-200 0 -200 200zM1475 201v1099q0 175 -175 175h-1100q-174 0 -175 -175v-1100q1 -175 175 -175h1101q174 0 174 176z" />
    <glyph glyph-name="minus" unicode="&#x2212;" horiz-adv-x="950" 
d="M134 500l80 300h800l-80 -300h-800z" />
    <glyph glyph-name="radical" unicode="&#x221a;" horiz-adv-x="1650" 
d="M0 200v1100q0 200 200 200h1100q200 0 200 -200v-1100q0 -200 -200 -200h-1100q-200 0 -200 200zM1475 201v1099q0 175 -175 175h-1100q-174 0 -175 -175v-1100q1 -175 175 -175h1101q174 0 174 176z" />
    <glyph glyph-name="infinity" unicode="&#x221e;" horiz-adv-x="1650" 
d="M0 200v1100q0 200 200 200h1100q200 0 200 -200v-1100q0 -200 -200 -200h-1100q-200 0 -200 200zM1475 201v1099q0 175 -175 175h-1100q-174 0 -175 -175v-1100q1 -175 175 -175h1101q174 0 174 176z" />
    <glyph glyph-name="integral" unicode="&#x222b;" horiz-adv-x="1650" 
d="M0 200v1100q0 200 200 200h1100q200 0 200 -200v-1100q0 -200 -200 -200h-1100q-200 0 -200 200zM1475 201v1099q0 175 -175 175h-1100q-174 0 -175 -175v-1100q1 -175 175 -175h1101q174 0 174 176z" />
    <glyph glyph-name="approxequal" unicode="&#x2248;" horiz-adv-x="1650" 
d="M0 200v1100q0 200 200 200h1100q200 0 200 -200v-1100q0 -200 -200 -200h-1100q-200 0 -200 200zM1475 201v1099q0 175 -175 175h-1100q-174 0 -175 -175v-1100q1 -175 175 -175h1101q174 0 174 176z" />
    <glyph glyph-name="lessequal" unicode="&#x2264;" horiz-adv-x="1650" 
d="M0 200v1100q0 200 200 200h1100q200 0 200 -200v-1100q0 -200 -200 -200h-1100q-200 0 -200 200zM1475 201v1099q0 175 -175 175h-1100q-174 0 -175 -175v-1100q1 -175 175 -175h1101q174 0 174 176z" />
    <glyph glyph-name="greaterequal" unicode="&#x2265;" horiz-adv-x="1650" 
d="M0 200v1100q0 200 200 200h1100q200 0 200 -200v-1100q0 -200 -200 -200h-1100q-200 0 -200 200zM1475 201v1099q0 175 -175 175h-1100q-174 0 -175 -175v-1100q1 -175 175 -175h1101q174 0 174 176z" />
    <glyph glyph-name="uniF001" unicode="&#xf001;" horiz-adv-x="150" 
 />
    <glyph glyph-name="uniF001" unicode="&#xfb01;" horiz-adv-x="150" 
 />
    <glyph glyph-name="uniF002" unicode="&#xf002;" horiz-adv-x="150" 
 />
    <glyph glyph-name="uniF002" unicode="&#xfb02;" horiz-adv-x="150" 
 />
    </font>
</defs>
</svg>
